# xmcd
#
# Track frame offsets:
#	182
#	5272
#	16420
#	31437
#	46590
#	69792
#	88030
#	106265
#	121082
#	134040
#	148950
#	159185
#
# Disc length: 2332 seconds
#
# Revision: 0
# Processed by: cddbd v1.5.2PL0 Copyright (c) Steve Scherf et al.
# Submitted via: EasyCDDAExtractor 16.0.4.1
#
DISCID=91091a0c
DTITLE=Rev. William McCrea - Blessings
DYEAR=1990
DGENRE=Southern Gospel
TTITLE0=Showers of blessings
TTITLE1=Count your blessings
TTITLE2=Paid in full
TTITLE3=Excuses
TTITLE4=Who can cheer the heart
TTITLE5=He took your place
TTITLE6=Blessed Assurance
TTITLE7=Doing by the book
TTITLE8=Believe right now
TTITLE9=Bring my children home
TTITLE10=He's the one
TTITLE11=Great eternal daylight
EXTD=
EXTT0=
EXTT1=
EXTT2=
EXTT3=
EXTT4=
EXTT5=
EXTT6=
EXTT7=
EXTT8=
EXTT9=
EXTT10=
EXTT11=
PLAYORDER=
